#
#  anemone.obj
#

mtllib anemone.mtl
v  -1.0  -1.0  -1.0
v   1.0  -1.0  -1.0
v  -1.0   1.0  -1.0
v   1.0   1.0  -1.0
v  -1.0  -1.0   1.0
v   1.0  -1.0   1.0
v  -1.0   1.0   1.0
v   1.0   1.0   1.0
vt  0.0  1.0
vt  0.0  0.0
vt  1.0  0.0
vt  1.0  1.0
vn  -0.70710678   0.70710678   0.0
vn   0.70710678  -0.70710678   0.0
vn   0.70710678   0.70710678   0.0
vn  -0.70710678  -0.70710678   0.0
vn   0.0          0.70710678  -0.70710678
vn   0.0         -0.70710678   0.70710678
vn   0.0          0.70710678   0.70710678
vn   0.0         -0.70710678  -0.70710678

usemtl anemone
f 1/2/1  5/3/1  8/4/1  4/1/1
f 1/2/2  4/1/2  8/4/2  5/3/2

f 5/2/7  6/3/7  4/4/7  3/1/7
f 5/2/8  3/1/8  4/4/8  6/3/8

f 6/2/3  2/3/3  3/4/3  7/1/3
f 6/2/4  7/1/4  3/4/4  2/3/4

f 2/2/5  1/3/5  7/4/5  8/1/5
f 2/2/6  8/1/6  7/4/6  1/3/6
