#
# freshwater-drum.obj
#
# 44 vertexes
# 38 texture coordinate pairs
# 46 vertex normals
# 1 meshes
#  90 faces
#



# 1 material libraries
mtllib fish.mtl



# 44 vertexes
v 1.52074 -0.156695 0
v 1.29982 -0.0213293 0
v 0.810178 0.371096 0
v 0.300951 0.345127 0
v 0.255252 0.3307 0
v -0.306856 0.192397 0
v -0.508588 0.0248384 0
v -0.72403 -0.0271003 0
v -0.874187 0.016182 0
v -0.978644 -0.11655 0
v -0.913358 -0.26371 0
v -0.750145 -0.217542 0
v -0.358432 -0.330076 0
v -0.301722 -0.372311 0
v -0.116876 -0.457037 0
v 0.640436 -0.44261 0
v 0.797121 -0.425297 0
v 1.10396 -0.390671 0
v 1.41733 -0.324305 0
v 0.699193 0.570195 0
v 0.562093 0.604821 0
v 0.111624 0.428806 0
v -0.306203 0.408608 0
v -0.639159 0.0969755 0
v -1.3116 0.174884 0
v -1.48761 -0.100224 0
v -1.34424 -0.425297 0
v -0.515117 -0.387786 0
v -0.541231 -0.656136 0
v -0.391075 -0.650365 0
v 0.522922 -0.491663 0
v 0.562093 -0.716731 0
v 1.35133 -0.243968 0.17968
v 0.920101 -0.064288 0.154011
v 0.278387 -0.0745555 0.205348
v -0.260652 -0.110491 0.128343
v -0.620012 -0.115625 0.0770056
v -0.821959 -0.122321 0.0513371
v 1.35133 -0.243968 -0.17968
v 0.920101 -0.064288 -0.154011
v 0.278387 -0.0745555 -0.205348
v -0.260652 -0.110491 -0.128343
v -0.620012 -0.115625 -0.0770056
v -0.821959 -0.122321 -0.0513371



# 38 texture coordinate pairs
vt 1 0.420849
vt 0.926562 0.522656
vt 0.763802 0.817795
vt 0.594531 0.798264
vt 0.57934 0.787413
vt 0.392491 0.683398
vt 0.325434 0.557378
vt 0.253819 0.518316
vt 0.203906 0.550868
vt 0.169184 0.451042
vt 0.190885 0.340365
vt 0.245139 0.375087
vt 0.375347 0.290451
vt 0.394198 0.258687
vt 0.455642 0.194965
vt 0.707378 0.205816
vt 0.759462 0.218837
vt 0.861458 0.244878
vt 0.965625 0.294792
vt 0.72691 0.967535
vt 0.681337 0.993576
vt 0.531597 0.861198
vt 0.392708 0.846007
vt 0.282031 0.611632
vt 0.0585069 0.670226
vt 0 0.46332
vt 0.0476562 0.218837
vt 0.323264 0.247049
vt 0.314583 0.0452257
vt 0.364497 0.049566
vt 0.668316 0.168924
vt 0.681337 -0.000347222
vt 0.943686 0.355212
vt 0.800341 0.490347
vt 0.587031 0.482625
vt 0.40785 0.455598
vt 0.288396 0.451737
vt 0.221267 0.446701



# 46 vertex normals
vn 0.988804 0.149223 7.26335e-017
vn 0.484849 0.874598 -2.92443e-017
vn 0.378193 0.925727 -1.43699e-016
vn -0.0754215 0.997152 0
vn -0.294643 0.955607 4.21974e-017
vn -0.463116 0.886298 6.88755e-017
vn -0.350127 0.936702 1.43877e-016
vn -0.0969644 0.995288 3.67529e-017
vn -0.288683 0.957425 0
vn -0.988407 0.151828 0
vn -0.344288 -0.938864 9.61136e-017
vn -0.0805945 -0.996747 -7.86456e-017
vn -0.37943 -0.925221 -7.7513e-017
vn -0.5128 -0.858508 0
vn -0.217548 -0.97605 4.25818e-017
vn 0.100828 -0.994904 1.26423e-016
vn 0.110981 -0.993823 -6.81105e-017
vn -0.0215722 -0.999767 -7.6818e-017
vn 0.573146 -0.819453 0
vn 1 0 0
vn 1 0 0
vn 1 0 0
vn 1 0 0
vn 1 0 0
vn 1 0 0
vn 1 0 0
vn 1 0 0
vn 1 0 0
vn 1 0 0
vn 1 0 0
vn 1 0 0
vn 1 0 0
vn 0.369776 -0.170497 0.913344
vn 0.0688989 0.00397514 0.997616
vn -0.0460922 0.00505836 0.998924
vn -0.187288 0.00932006 0.982261
vn -0.142679 0.0408381 0.988926
vn -0.110714 0.0209233 0.993632
vn 0.369776 -0.170497 -0.913344
vn 0.0688989 0.00397514 -0.997616
vn -0.0460922 0.00505836 -0.998924
vn -0.187288 0.00932006 -0.982261
vn -0.142679 0.0408381 -0.988926
vn -0.110714 0.0209233 -0.993632
vn 0 0 1
vn 0 0 -1



# 1 meshes

usemtl freshwater-drum
# 90 faces
f 1/1/1 2/2/2 33/33/33
f 2/2/2 34/34/34 33/33/33
f 2/2/2 3/3/3 34/34/34
f 3/3/3 4/4/4 34/34/34
f 4/4/4 35/35/35 34/34/34
f 4/4/4 5/5/5 35/35/35
f 5/5/5 36/36/36 35/35/35
f 5/5/5 6/6/6 36/36/36
f 6/6/6 7/7/7 36/36/36
f 7/7/7 37/37/37 36/36/36
f 7/7/7 8/8/8 37/37/37
f 8/8/8 38/38/38 37/37/37
f 8/8/8 9/9/9 38/38/38
f 9/9/9 10/10/10 38/38/38
f 10/10/10 11/11/11 38/38/38
f 11/11/11 12/12/12 38/38/38
f 12/12/12 37/37/37 38/38/38
f 12/12/12 13/13/13 37/37/37
f 13/13/13 36/36/36 37/37/37
f 13/13/13 14/14/14 36/36/36
f 14/14/14 15/15/15 36/36/36
f 15/15/15 35/35/35 36/36/36
f 15/15/15 16/16/16 35/35/35
f 16/16/16 34/34/34 35/35/35
f 16/16/16 17/17/17 34/34/34
f 17/17/17 18/18/18 34/34/34
f 18/18/18 33/33/33 34/34/34
f 18/18/18 19/19/19 33/33/33
f 19/19/19 1/1/1 33/33/33
f 1/1/1 39/33/39 2/2/2
f 2/2/2 39/33/39 40/34/40
f 2/2/2 40/34/40 3/3/3
f 3/3/3 40/34/40 4/4/4
f 4/4/4 40/34/40 41/35/41
f 4/4/4 41/35/41 5/5/5
f 5/5/5 41/35/41 42/36/42
f 5/5/5 42/36/42 6/6/6
f 6/6/6 42/36/42 7/7/7
f 7/7/7 42/36/42 43/37/43
f 7/7/7 43/37/43 8/8/8
f 8/8/8 43/37/43 44/38/44
f 8/8/8 44/38/44 9/9/9
f 9/9/9 44/38/44 10/10/10
f 10/10/10 44/38/44 11/11/11
f 11/11/11 44/38/44 12/12/12
f 12/12/12 44/38/44 43/37/43
f 12/12/12 43/37/43 13/13/13
f 13/13/13 43/37/43 42/36/42
f 13/13/13 42/36/42 14/14/14
f 14/14/14 42/36/42 15/15/15
f 15/15/15 42/36/42 41/35/41
f 15/15/15 41/35/41 16/16/16
f 16/16/16 41/35/41 40/34/40
f 16/16/16 40/34/40 17/17/17
f 17/17/17 40/34/40 18/18/18
f 18/18/18 40/34/40 39/33/39
f 18/18/18 39/33/39 19/19/19
f 19/19/19 39/33/39 1/1/1
f 4/4/45 3/3/45 20/20/45
f 4/4/45 20/20/45 21/21/45
f 6/6/45 5/5/45 22/22/45
f 6/6/45 22/22/45 23/23/45
f 6/6/45 23/23/45 24/24/45
f 6/6/45 24/24/45 7/7/45
f 10/10/45 9/9/45 25/25/45
f 10/10/45 25/25/45 26/26/45
f 10/10/45 26/26/45 27/27/45
f 10/10/45 27/27/45 11/11/45
f 14/14/45 30/30/45 15/15/45
f 14/14/45 29/29/45 30/30/45
f 14/14/45 28/28/45 29/29/45
f 14/14/45 13/13/45 28/28/45
f 16/16/45 32/32/45 17/17/45
f 16/16/45 31/31/45 32/32/45
f 4/4/46 20/20/46 3/3/46
f 4/4/46 21/21/46 20/20/46
f 6/6/46 22/22/46 5/5/46
f 6/6/46 23/23/46 22/22/46
f 6/6/46 24/24/46 23/23/46
f 6/6/46 7/7/46 24/24/46
f 10/10/46 25/25/46 9/9/46
f 10/10/46 26/26/46 25/25/46
f 10/10/46 27/27/46 26/26/46
f 10/10/46 11/11/46 27/27/46
f 14/14/46 15/15/46 30/30/46
f 14/14/46 30/30/46 29/29/46
f 14/14/46 29/29/46 28/28/46
f 14/14/46 28/28/46 13/13/46
f 16/16/46 17/17/46 32/32/46
f 16/16/46 32/32/46 31/31/46




# End of freshwater-drum.obj

