#
# dolphinfish.obj
#
# 44 vertexes
# 38 texture coordinate pairs
# 46 vertex normals
# 1 meshes
#  90 faces
#



# 1 material libraries
mtllib fish.mtl



# 44 vertexes
v 1.29132 0.0132965 0
v 1.25309 0.180655 0
v 0.995013 0.388409 0
v 0.192103 0.348013 0
v 0.192103 0.348013 0
v -0.448312 0.307616 0
v -1.07917 0.174884 0
v -1.19387 0.171998 0
v -1.26078 0.218166 0
v -1.22255 0.0912045 0
v -1.21299 -0.0386422 0
v -1.12696 0.0190674 0
v -1.03138 -0.00690191 0
v -0.792416 -0.0963519 0
v -0.0468578 -0.23197 0
v 0.536207 -0.269481 0
v 0.689142 -0.281023 0
v 0.956779 -0.278137 0
v 1.28177 -0.08481 0
v 0.526649 0.59905 0
v 0.0869604 0.48363 0
v 0.0869604 0.48363 0
v -0.448312 0.353784 0
v -1.06961 0.258563 0
v -1.71959 0.414379 0
v -1.30857 0.0710061 0
v -1.69091 -0.454152 0
v -1.08873 -0.0472987 0
v -1.0027 -0.125207 0
v -0.104208 -0.318534 0
v 0.421506 -0.699418 0
v 0.622233 -0.477236 0
v 1.03325 -0.0415277 0.17968
v 0.478857 0.0190674 0.154011
v 0.0678435 0.0623497 0.205348
v -0.247585 0.0912045 0.128343
v -0.620364 0.099861 0.0770056
v -1.03138 0.120059 0.0513371
v 1.03325 -0.0415277 -0.17968
v 0.478857 0.0190674 -0.154011
v 0.0678435 0.0623497 -0.205348
v -0.247585 0.0912045 -0.128343
v -0.620364 0.099861 -0.0770056
v -1.03138 0.120059 -0.0513371



# 38 texture coordinate pairs
vt 0.787674 0.548698
vt 0.778993 0.674566
vt 0.720399 0.830816
vt 0.538108 0.800434
vt 0.538108 0.800434
vt 0.392708 0.770052
vt 0.249479 0.670226
vt 0.223438 0.668056
vt 0.208247 0.702778
vt 0.216927 0.607292
vt 0.219097 0.509635
vt 0.238628 0.553038
vt 0.26033 0.533507
vt 0.314583 0.466233
vt 0.483854 0.364236
vt 0.616233 0.336024
vt 0.650955 0.327344
vt 0.711719 0.329514
vt 0.785503 0.474913
vt 0.614062 0.989236
vt 0.514236 0.902431
vt 0.514236 0.902431
vt 0.392708 0.804774
vt 0.251649 0.73316
vt 0.10408 0.850347
vt 0.197396 0.592101
vt 0.11059 0.197135
vt 0.247309 0.503125
vt 0.26684 0.444531
vt 0.470833 0.299132
vt 0.590191 0.0126736
vt 0.635764 0.179774
vt 0.72908 0.507465
vt 0.603212 0.553038
vt 0.509896 0.58559
vt 0.438281 0.607292
vt 0.353646 0.613802
vt 0.26033 0.628993



# 46 vertex normals
vn 0.998131 0.0611037 9.83008e-017
vn 0.620146 0.784486 9.40521e-017
vn 0.215976 0.976399 -9.04189e-017
vn 0.771805 0.63586 0
vn 0.603487 0.797373 4.00722e-017
vn -0.131938 0.991258 5.90966e-017
vn -0.178434 0.983952 4.15263e-017
vn 0.192171 0.981361 0
vn 0.296344 0.955081 3.07294e-016
vn -0.983235 -0.182343 0
vn 0.289958 -0.957039 2.17696e-016
vn 0.212049 -0.977259 1.13203e-016
vn -0.390314 -0.920682 -6.29663e-017
vn -0.256113 -0.966647 0
vn -0.239404 -0.97092 0
vn -0.00665269 -0.999978 -3.70377e-017
vn -0.0333569 -0.999444 0
vn 0.166232 -0.986087 3.27972e-017
vn 0.810538 -0.585686 -4.70719e-017
vn 1 0 0
vn 1 0 0
vn 1 0 0
vn 1 0 0
vn 1 0 0
vn 1 0 0
vn 1 0 0
vn 1 0 0
vn 1 0 0
vn 1 0 0
vn 1 0 0
vn 1 0 0
vn 1 0 0
vn 0.341154 -0.127471 0.931324
vn 0.0362121 -0.0332312 0.998791
vn 0.189054 -0.0856856 0.978221
vn -0.132812 0.0524402 0.989753
vn -0.0865783 0.123805 0.988522
vn 0.086202 0.0222683 0.996029
vn 0.341154 -0.127471 -0.931324
vn 0.0362121 -0.0332312 -0.998791
vn 0.189054 -0.0856856 -0.978221
vn -0.132812 0.0524402 -0.989753
vn -0.0865783 0.123805 -0.988522
vn 0.086202 0.0222683 -0.996029
vn 0 0 1
vn 0 0 -1



# 1 meshes

usemtl dolphinfish
# 90 faces
f 1/1/1 2/2/2 33/33/33
f 2/2/2 34/34/34 33/33/33
f 2/2/2 3/3/3 34/34/34
f 3/3/3 4/4/4 34/34/34
f 4/4/4 35/35/35 34/34/34
f 4/4/4 5/5/5 35/35/35
f 5/5/5 36/36/36 35/35/35
f 5/5/5 6/6/6 36/36/36
f 6/6/6 7/7/7 36/36/36
f 7/7/7 37/37/37 36/36/36
f 7/7/7 8/8/8 37/37/37
f 8/8/8 38/38/38 37/37/37
f 8/8/8 9/9/9 38/38/38
f 9/9/9 10/10/10 38/38/38
f 10/10/10 11/11/11 38/38/38
f 11/11/11 12/12/12 38/38/38
f 12/12/12 37/37/37 38/38/38
f 12/12/12 13/13/13 37/37/37
f 13/13/13 36/36/36 37/37/37
f 13/13/13 14/14/14 36/36/36
f 14/14/14 15/15/15 36/36/36
f 15/15/15 35/35/35 36/36/36
f 15/15/15 16/16/16 35/35/35
f 16/16/16 34/34/34 35/35/35
f 16/16/16 17/17/17 34/34/34
f 17/17/17 18/18/18 34/34/34
f 18/18/18 33/33/33 34/34/34
f 18/18/18 19/19/19 33/33/33
f 19/19/19 1/1/1 33/33/33
f 1/1/1 39/33/39 2/2/2
f 2/2/2 39/33/39 40/34/40
f 2/2/2 40/34/40 3/3/3
f 3/3/3 40/34/40 4/4/4
f 4/4/4 40/34/40 41/35/41
f 4/4/4 41/35/41 5/5/5
f 5/5/5 41/35/41 42/36/42
f 5/5/5 42/36/42 6/6/6
f 6/6/6 42/36/42 7/7/7
f 7/7/7 42/36/42 43/37/43
f 7/7/7 43/37/43 8/8/8
f 8/8/8 43/37/43 44/38/44
f 8/8/8 44/38/44 9/9/9
f 9/9/9 44/38/44 10/10/10
f 10/10/10 44/38/44 11/11/11
f 11/11/11 44/38/44 12/12/12
f 12/12/12 44/38/44 43/37/43
f 12/12/12 43/37/43 13/13/13
f 13/13/13 43/37/43 42/36/42
f 13/13/13 42/36/42 14/14/14
f 14/14/14 42/36/42 15/15/15
f 15/15/15 42/36/42 41/35/41
f 15/15/15 41/35/41 16/16/16
f 16/16/16 41/35/41 40/34/40
f 16/16/16 40/34/40 17/17/17
f 17/17/17 40/34/40 18/18/18
f 18/18/18 40/34/40 39/33/39
f 18/18/18 39/33/39 19/19/19
f 19/19/19 39/33/39 1/1/1
f 4/4/45 3/3/45 20/20/45
f 4/4/45 20/20/45 21/21/45
f 6/6/45 5/5/45 22/22/45
f 6/6/45 22/22/45 23/23/45
f 6/6/45 23/23/45 24/24/45
f 6/6/45 24/24/45 7/7/45
f 10/10/45 9/9/45 25/25/45
f 10/10/45 25/25/45 26/26/45
f 10/10/45 26/26/45 27/27/45
f 10/10/45 27/27/45 11/11/45
f 14/14/45 30/30/45 15/15/45
f 14/14/45 29/29/45 30/30/45
f 14/14/45 28/28/45 29/29/45
f 14/14/45 13/13/45 28/28/45
f 16/16/45 32/32/45 17/17/45
f 16/16/45 31/31/45 32/32/45
f 4/4/46 20/20/46 3/3/46
f 4/4/46 21/21/46 20/20/46
f 6/6/46 22/22/46 5/5/46
f 6/6/46 23/23/46 22/22/46
f 6/6/46 24/24/46 23/23/46
f 6/6/46 7/7/46 24/24/46
f 10/10/46 25/25/46 9/9/46
f 10/10/46 26/26/46 25/25/46
f 10/10/46 27/27/46 26/26/46
f 10/10/46 11/11/46 27/27/46
f 14/14/46 15/15/46 30/30/46
f 14/14/46 30/30/46 29/29/46
f 14/14/46 29/29/46 28/28/46
f 14/14/46 28/28/46 13/13/46
f 16/16/46 17/17/46 32/32/46
f 16/16/46 32/32/46 31/31/46




# End of dolphinfish.obj

