#
# yellow-tang.obj
#
# 44 vertexes
# 38 texture coordinate pairs
# 46 vertex normals
# 1 meshes
#  90 faces
#



# 1 material libraries
mtllib fish.mtl



# 44 vertexes
v 1.50612 -0.446276 0
v 1.28676 -0.288427 0
v 1.26065 -0.141465 0
v 0.842821 0.571576 0
v 0.686136 0.680437 0
v -0.253975 0.36474 0
v -0.818041 -0.0652618 0
v -0.802373 -0.0979202 0
v -0.943389 -0.0870341 0
v -0.938167 -0.22311 0
v -0.932944 -0.342858 0
v -0.771036 -0.424503 0
v -0.708362 -0.500706 0
v -0.321872 -0.914378 0
v 0.127292 -1.094 0
v 0.607793 -1.00691 0
v 0.801038 -0.865391 0
v 1.16141 -0.63134 0
v 1.49045 -0.527922 0
v 1.21364 0.0599284 0
v 1.03607 0.299423 0
v -0.201747 0.979805 0
v -0.567345 0.832842 0
v -0.849378 0.0218271 0
v -1.3351 0.370183 0
v -1.48761 -0.236323 0
v -1.25676 -0.663998 0
v -0.880715 -0.348301 0
v -0.755367 -0.963366 0
v -0.624796 -1.10489 0
v 0.278754 -1.0559 0
v 0.142961 -1.26818 0
v 1.20842 -0.370073 0.17968
v 0.920101 -0.151588 0.154011
v 0.278387 -0.175798 0.205348
v -0.260652 -0.260533 0.128343
v -0.620012 -0.272638 0.0770056
v -0.791927 -0.250326 0.0513371
v 1.20842 -0.370073 -0.17968
v 0.920101 -0.151588 -0.154011
v 0.278387 -0.175798 -0.205348
v -0.260652 -0.260533 -0.128343
v -0.620012 -0.272638 -0.0770056
v -0.791927 -0.250326 -0.0513371



# 38 texture coordinate pairs
vt 0.995139 0.396354
vt 0.922222 0.446701
vt 0.913542 0.493576
vt 0.774653 0.721007
vt 0.722569 0.755729
vt 0.410069 0.655035
vt 0.222569 0.517882
vt 0.227778 0.507465
vt 0.180903 0.510937
vt 0.182639 0.467535
vt 0.184375 0.42934
vt 0.238194 0.403299
vt 0.259028 0.378993
vt 0.3875 0.247049
vt 0.536806 0.189757
vt 0.696528 0.217535
vt 0.760764 0.262674
vt 0.880556 0.337326
vt 0.989931 0.370313
vt 0.897917 0.557813
vt 0.838889 0.634201
vt 0.427431 0.851215
vt 0.305903 0.80434
vt 0.212153 0.54566
vt 0.0506944 0.656771
vt 0 0.46332
vt 0.0767361 0.32691
vt 0.201736 0.427604
vt 0.243403 0.231424
vt 0.286806 0.186285
vt 0.587153 0.20191
vt 0.542014 0.134201
vt 0.896181 0.42066
vt 0.800341 0.490347
vt 0.587031 0.482625
vt 0.40785 0.455598
vt 0.288396 0.451737
vt 0.23125 0.458854



# 46 vertex normals
vn 0.858143 0.513411 -4.8019e-017
vn 0.68877 0.72498 2.75585e-017
vn 0.935319 0.353807 0
vn 0.686226 0.727388 0
vn -0.182125 0.983275 -1.58721e-016
vn -0.480923 0.876763 0
vn -0.988398 0.151883 -6.1758e-017
vn -0.886034 0.463619 -2.95204e-016
vn -0.707928 0.706284 0
vn -0.999161 -0.0409653 8.31641e-017
vn -0.841085 -0.540903 1.93388e-016
vn -0.589176 -0.808005 1.10794e-016
vn -0.655697 -0.755024 6.33822e-017
vn -0.585983 -0.810323 0
vn -0.225438 -0.974257 -8.86723e-017
vn 0.408962 -0.912551 -1.52039e-016
vn 0.568555 -0.822645 -9.76587e-017
vn -0.0677988 -0.997699 8.69712e-017
vn 0.709179 -0.705029 0
vn 1 0 0
vn 1 0 0
vn 1 0 0
vn 1 0 0
vn 1 0 0
vn 1 0 0
vn 1 0 0
vn 1 0 0
vn 1 0 0
vn 1 0 0
vn 1 0 0
vn 1 0 0
vn 1 0 0
vn 0.33283 0.0675971 0.940561
vn 0.189503 0.0115021 0.981813
vn 0.00496135 0.0120692 0.999915
vn -0.133689 0.0129359 0.990939
vn -0.246451 -0.0945426 0.964533
vn -0.185937 0.00189259 0.98256
vn 0.33283 0.0675971 -0.940561
vn 0.189503 0.0115021 -0.981813
vn 0.00496135 0.0120692 -0.999915
vn -0.133689 0.0129359 -0.990939
vn -0.246451 -0.0945426 -0.964533
vn -0.185937 0.00189259 -0.98256
vn 0 0 1
vn 0 0 -1



# 1 meshes

usemtl yellow-tang
# 90 faces
f 1/1/1 2/2/2 33/33/33
f 2/2/2 34/34/34 33/33/33
f 2/2/2 3/3/3 34/34/34
f 3/3/3 4/4/4 34/34/34
f 4/4/4 35/35/35 34/34/34
f 4/4/4 5/5/5 35/35/35
f 5/5/5 36/36/36 35/35/35
f 5/5/5 6/6/6 36/36/36
f 6/6/6 7/7/7 36/36/36
f 7/7/7 37/37/37 36/36/36
f 7/7/7 8/8/8 37/37/37
f 8/8/8 38/38/38 37/37/37
f 8/8/8 9/9/9 38/38/38
f 9/9/9 10/10/10 38/38/38
f 10/10/10 11/11/11 38/38/38
f 11/11/11 12/12/12 38/38/38
f 12/12/12 37/37/37 38/38/38
f 12/12/12 13/13/13 37/37/37
f 13/13/13 36/36/36 37/37/37
f 13/13/13 14/14/14 36/36/36
f 14/14/14 15/15/15 36/36/36
f 15/15/15 35/35/35 36/36/36
f 15/15/15 16/16/16 35/35/35
f 16/16/16 34/34/34 35/35/35
f 16/16/16 17/17/17 34/34/34
f 17/17/17 18/18/18 34/34/34
f 18/18/18 33/33/33 34/34/34
f 18/18/18 19/19/19 33/33/33
f 19/19/19 1/1/1 33/33/33
f 1/1/1 39/33/39 2/2/2
f 2/2/2 39/33/39 40/34/40
f 2/2/2 40/34/40 3/3/3
f 3/3/3 40/34/40 4/4/4
f 4/4/4 40/34/40 41/35/41
f 4/4/4 41/35/41 5/5/5
f 5/5/5 41/35/41 42/36/42
f 5/5/5 42/36/42 6/6/6
f 6/6/6 42/36/42 7/7/7
f 7/7/7 42/36/42 43/37/43
f 7/7/7 43/37/43 8/8/8
f 8/8/8 43/37/43 44/38/44
f 8/8/8 44/38/44 9/9/9
f 9/9/9 44/38/44 10/10/10
f 10/10/10 44/38/44 11/11/11
f 11/11/11 44/38/44 12/12/12
f 12/12/12 44/38/44 43/37/43
f 12/12/12 43/37/43 13/13/13
f 13/13/13 43/37/43 42/36/42
f 13/13/13 42/36/42 14/14/14
f 14/14/14 42/36/42 15/15/15
f 15/15/15 42/36/42 41/35/41
f 15/15/15 41/35/41 16/16/16
f 16/16/16 41/35/41 40/34/40
f 16/16/16 40/34/40 17/17/17
f 17/17/17 40/34/40 18/18/18
f 18/18/18 40/34/40 39/33/39
f 18/18/18 39/33/39 19/19/19
f 19/19/19 39/33/39 1/1/1
f 4/4/45 3/3/45 20/20/45
f 4/4/45 20/20/45 21/21/45
f 6/6/45 5/5/45 22/22/45
f 6/6/45 22/22/45 23/23/45
f 6/6/45 23/23/45 24/24/45
f 6/6/45 24/24/45 7/7/45
f 10/10/45 9/9/45 25/25/45
f 10/10/45 25/25/45 26/26/45
f 10/10/45 26/26/45 27/27/45
f 10/10/45 27/27/45 11/11/45
f 14/14/45 30/30/45 15/15/45
f 14/14/45 29/29/45 30/30/45
f 14/14/45 28/28/45 29/29/45
f 14/14/45 13/13/45 28/28/45
f 16/16/45 32/32/45 17/17/45
f 16/16/45 31/31/45 32/32/45
f 4/4/46 20/20/46 3/3/46
f 4/4/46 21/21/46 20/20/46
f 6/6/46 22/22/46 5/5/46
f 6/6/46 23/23/46 22/22/46
f 6/6/46 24/24/46 23/23/46
f 6/6/46 7/7/46 24/24/46
f 10/10/46 25/25/46 9/9/46
f 10/10/46 26/26/46 25/25/46
f 10/10/46 27/27/46 26/26/46
f 10/10/46 11/11/46 27/27/46
f 14/14/46 15/15/46 30/30/46
f 14/14/46 30/30/46 29/29/46
f 14/14/46 29/29/46 28/28/46
f 14/14/46 28/28/46 13/13/46
f 16/16/46 17/17/46 32/32/46
f 16/16/46 32/32/46 31/31/46




# End of yellow-tang.obj

