#
#  pipe8.obj
#
#  48 vertexes
#  50 texture coordinate pairs
#  24 vertex normals
#  1 meshes
#     48 faces
#  All faces are triangulated
#

# 1 material libraries
mtllib pipes.mtl



# 48 vertexes
v -1 1 0
v 1 1 0
v -1 0.965926 0.258819
v 1 0.965926 0.258819
v -1 0.866025 0.5
v 1 0.866025 0.5
v -1 0.707107 0.707107
v 1 0.707107 0.707107
v -1 0.5 0.866025
v 1 0.5 0.866025
v -1 0.258819 0.965926
v 1 0.258819 0.965926
v -1 0 1
v 1 0 1
v -1 -0.258819 0.965926
v 1 -0.258819 0.965926
v -1 -0.5 0.866025
v 1 -0.5 0.866025
v -1 -0.707107 0.707107
v 1 -0.707107 0.707107
v -1 -0.866025 0.5
v 1 -0.866025 0.5
v -1 -0.965926 0.258819
v 1 -0.965926 0.258819
v -1 -1 0
v 1 -1 0
v -1 -0.965926 -0.258819
v 1 -0.965926 -0.258819
v -1 -0.866025 -0.5
v 1 -0.866025 -0.5
v -1 -0.707107 -0.707107
v 1 -0.707107 -0.707107
v -1 -0.5 -0.866025
v 1 -0.5 -0.866025
v -1 -0.258819 -0.965926
v 1 -0.258819 -0.965926
v -1 -0 -1
v 1 -0 -1
v -1 0.258819 -0.965926
v 1 0.258819 -0.965926
v -1 0.5 -0.866025
v 1 0.5 -0.866025
v -1 0.707107 -0.707107
v 1 0.707107 -0.707107
v -1 0.866025 -0.5
v 1 0.866025 -0.5
v -1 0.965926 -0.258819
v 1 0.965926 -0.258819

# 50 texture coordinate pairs
vt 0 0
vt 8 0
vt 0 0.0416667
vt 8 0.0416667
vt 0 0.0833333
vt 8 0.0833333
vt 0 0.125
vt 8 0.125
vt 0 0.166667
vt 8 0.166667
vt 0 0.208333
vt 8 0.208333
vt 0 0.25
vt 8 0.25
vt 0 0.291667
vt 8 0.291667
vt 0 0.333333
vt 8 0.333333
vt 0 0.375
vt 8 0.375
vt 0 0.416667
vt 8 0.416667
vt 0 0.458333
vt 8 0.458333
vt 0 0.5
vt 8 0.5
vt 0 0.541667
vt 8 0.541667
vt 0 0.583333
vt 8 0.583333
vt 0 0.625
vt 8 0.625
vt 0 0.666667
vt 8 0.666667
vt 0 0.708333
vt 8 0.708333
vt 0 0.75
vt 8 0.75
vt 0 0.791667
vt 8 0.791667
vt 0 0.833333
vt 8 0.833333
vt 0 0.875
vt 8 0.875
vt 0 0.916667
vt 8 0.916667
vt 0 0.958333
vt 8 0.958333
vt 0 1
vt 8 1

# 24 vertex normals
vn 0 1 0
vn 0 0.965926 0.258819
vn 0 0.866025 0.5
vn 0 0.707107 0.707107
vn 0 0.5 0.866025
vn 0 0.258819 0.965926
vn 0 0 1
vn 0 -0.258819 0.965926
vn 0 -0.5 0.866025
vn 0 -0.707107 0.707107
vn 0 -0.866025 0.5
vn 0 -0.965926 0.258819
vn 0 -1 0
vn 0 -0.965926 -0.258819
vn 0 -0.866025 -0.5
vn 0 -0.707107 -0.707107
vn 0 -0.5 -0.866025
vn 0 -0.258819 -0.965926
vn 0 -0 -1
vn 0 0.258819 -0.965926
vn 0 0.5 -0.866025
vn 0 0.707107 -0.707107
vn 0 0.866025 -0.5
vn 0 0.965926 -0.258819



# 1 meshes

usemtl rusty_pipe
# 48 faces
f 2/2/1 1/1/1 4/4/2
f 4/4/2 1/1/1 3/3/2
f 4/4/2 3/3/2 6/6/3
f 6/6/3 3/3/2 5/5/3
f 6/6/3 5/5/3 8/8/4
f 8/8/4 5/5/3 7/7/4
f 8/8/4 7/7/4 10/10/5
f 10/10/5 7/7/4 9/9/5
f 10/10/5 9/9/5 12/12/6
f 12/12/6 9/9/5 11/11/6
f 12/12/6 11/11/6 14/14/7
f 14/14/7 11/11/6 13/13/7
f 14/14/7 13/13/7 16/16/8
f 16/16/8 13/13/7 15/15/8
f 16/16/8 15/15/8 18/18/9
f 18/18/9 15/15/8 17/17/9
f 18/18/9 17/17/9 20/20/10
f 20/20/10 17/17/9 19/19/10
f 20/20/10 19/19/10 22/22/11
f 22/22/11 19/19/10 21/21/11
f 22/22/11 21/21/11 24/24/12
f 24/24/12 21/21/11 23/23/12
f 24/24/12 23/23/12 26/26/13
f 26/26/13 23/23/12 25/25/13
f 26/26/13 25/25/13 28/28/14
f 28/28/14 25/25/13 27/27/14
f 28/28/14 27/27/14 30/30/15
f 30/30/15 27/27/14 29/29/15
f 30/30/15 29/29/15 32/32/16
f 32/32/16 29/29/15 31/31/16
f 32/32/16 31/31/16 34/34/17
f 34/34/17 31/31/16 33/33/17
f 34/34/17 33/33/17 36/36/18
f 36/36/18 33/33/17 35/35/18
f 36/36/18 35/35/18 38/38/19
f 38/38/19 35/35/18 37/37/19
f 38/38/19 37/37/19 40/40/20
f 40/40/20 37/37/19 39/39/20
f 40/40/20 39/39/20 42/42/21
f 42/42/21 39/39/20 41/41/21
f 42/42/21 41/41/21 44/44/22
f 44/44/22 41/41/21 43/43/22
f 44/44/22 43/43/22 46/46/23
f 46/46/23 43/43/22 45/45/23
f 46/46/23 45/45/23 48/48/24
f 48/48/24 45/45/23 47/47/24
f 48/48/24 47/47/24 2/50/1
f 2/50/1 47/47/24 1/49/1




# End of pipe8.obj

