#
# rainbow_trout.obj
#
# 44 vertexes
# 38 texture coordinate pairs
# 46 vertex normals
# 1 meshes
#  90 faces
#



# 1 material libraries
mtllib rainbow_trout.mtl



# 44 vertexes
v 1.60215 -0.00545916 0
v 1.02046 0.202296 0
v 0.309502 0.252792 0
v -0.0280235 0.218166 0
v -0.272191 0.206624 0
v -0.631261 0.143143 0
v -0.738982 0.111403 0
v -0.904154 0.09409 0
v -1.06215 0.108517 0
v -1.26322 -0.0674971 0
v -1.11241 -0.240626 0
v -0.968787 -0.203115 0
v -0.652805 -0.229084 0
v -0.516359 -0.286794 0
v -0.379912 -0.335847 0
v 0.0796975 -0.35316 0
v 0.1946 -0.3849 0
v 1.04201 -0.33729 0
v 1.58779 -0.169932 0
v 0.0725161 0.558653 0
v -0.221921 0.298959 0
v -0.552266 0.171998 0
v -0.717438 0.192196 0
v -0.767708 0.140258 0
v -1.55766 0.382638 0
v -1.48585 -0.0357567 0
v -1.53612 -0.477236 0
v -0.767708 -0.243512 0
v -0.681531 -0.609968 0
v -0.545084 -0.529174 0
v -0.0352049 -0.413755 0
v 0.0796975 -0.67922 0
v 1.1301 0.0188028 0.17968
v 0.773523 0.00805741 0.154011
v 0.183801 -1.6638e-006 0.205348
v -0.316776 -0.0188062 0.128343
v -0.659638 -0.0241789 0.0770056
v -0.947641 -0.0268652 0.0513371
v 1.1301 0.0188028 -0.17968
v 0.773523 0.00805741 -0.154011
v 0.183801 -1.6638e-006 -0.205348
v -0.316776 -0.0188062 -0.128343
v -0.659638 -0.0241789 -0.0770056
v -0.947641 -0.0268652 -0.0513371



# 38 texture coordinate pairs
vt 0.978646 0.534592
vt 0.802865 0.690842
vt 0.588021 0.728819
vt 0.486024 0.702778
vt 0.41224 0.694097
vt 0.303733 0.646354
vt 0.271181 0.622483
vt 0.221267 0.609462
vt 0.173524 0.620313
vt 0.11276 0.487934
vt 0.158333 0.357726
vt 0.201736 0.385938
vt 0.297222 0.366406
vt 0.338455 0.323003
vt 0.379688 0.286111
vt 0.518576 0.27309
vt 0.553299 0.249219
vt 0.809375 0.285026
vt 0.974306 0.410894
vt 0.516406 0.958854
vt 0.427431 0.763542
vt 0.327604 0.668056
vt 0.277691 0.683247
vt 0.2625 0.644184
vt 0.0237847 0.826476
vt 0.0454861 0.511806
vt 0.0302951 0.179774
vt 0.2625 0.355556
vt 0.288542 0.0799479
vt 0.329774 0.140712
vt 0.483854 0.227517
vt 0.518576 0.0278646
vt 0.850608 0.563889
vt 0.73776 0.555208
vt 0.551128 0.548698
vt 0.392708 0.533507
vt 0.284201 0.529167
vt 0.193056 0.526997



# 46 vertex normals
vn 0.653919 0.756565 5.83204e-017
vn 0.11678 0.993158 1.09508e-016
vn -0.00572008 0.999984 1.05412e-016
vn -0.0151663 0.999885 6.01789e-017
vn -0.158393 0.987376 0
vn -0.226013 0.974124 5.67837e-017
vn -0.232746 0.972538 8.03988e-017
vn -0.0782087 0.996937 1.31136e-016
vn -0.244438 0.969665 0
vn -0.968374 0.249501 1.64492e-016
vn -0.164148 -0.986436 0
vn -0.0406288 -0.999174 1.22018e-016
vn -0.280819 -0.959761 -1.02092e-016
vn -0.363894 -0.93144 0
vn -0.223123 -0.97479 1.80553e-016
vn -0.00896855 -0.99996 8.6407e-017
vn -0.0782717 -0.996932 0
vn 0.0885474 -0.996072 -1.26944e-016
vn 0.703233 -0.710959 7.81423e-017
vn 1 0 0
vn 1 0 0
vn 1 0 0
vn 1 0 0
vn 1 0 0
vn 1 0 0
vn 1 0 0
vn 1 0 0
vn 1 0 0
vn 1 0 0
vn 1 0 0
vn 1 0 0
vn 1 0 0
vn 0.156288 0.116936 0.980765
vn -0.00731798 0.12047 0.99269
vn -0.0396121 0.105358 0.993645
vn -0.143108 0.0682771 0.987349
vn -0.0938643 0.0608978 0.993721
vn -0.067388 0.0564616 0.996128
vn 0.156288 0.116936 -0.980765
vn -0.00731798 0.12047 -0.99269
vn -0.0396121 0.105358 -0.993645
vn -0.143108 0.0682771 -0.987349
vn -0.0938643 0.0608978 -0.993721
vn -0.067388 0.0564616 -0.996128
vn 0 0 1
vn 0 0 -1



# 1 meshes

usemtl rainbow_trout
# 90 faces
f 1/1/1 2/2/2 33/33/33
f 2/2/2 34/34/34 33/33/33
f 2/2/2 3/3/3 34/34/34
f 3/3/3 4/4/4 34/34/34
f 4/4/4 35/35/35 34/34/34
f 4/4/4 5/5/5 35/35/35
f 5/5/5 36/36/36 35/35/35
f 5/5/5 6/6/6 36/36/36
f 6/6/6 7/7/7 36/36/36
f 7/7/7 37/37/37 36/36/36
f 7/7/7 8/8/8 37/37/37
f 8/8/8 38/38/38 37/37/37
f 8/8/8 9/9/9 38/38/38
f 9/9/9 10/10/10 38/38/38
f 10/10/10 11/11/11 38/38/38
f 11/11/11 12/12/12 38/38/38
f 12/12/12 37/37/37 38/38/38
f 12/12/12 13/13/13 37/37/37
f 13/13/13 36/36/36 37/37/37
f 13/13/13 14/14/14 36/36/36
f 14/14/14 15/15/15 36/36/36
f 15/15/15 35/35/35 36/36/36
f 15/15/15 16/16/16 35/35/35
f 16/16/16 34/34/34 35/35/35
f 16/16/16 17/17/17 34/34/34
f 17/17/17 18/18/18 34/34/34
f 18/18/18 33/33/33 34/34/34
f 18/18/18 19/19/19 33/33/33
f 19/19/19 1/1/1 33/33/33
f 1/1/1 39/33/39 2/2/2
f 2/2/2 39/33/39 40/34/40
f 2/2/2 40/34/40 3/3/3
f 3/3/3 40/34/40 4/4/4
f 4/4/4 40/34/40 41/35/41
f 4/4/4 41/35/41 5/5/5
f 5/5/5 41/35/41 42/36/42
f 5/5/5 42/36/42 6/6/6
f 6/6/6 42/36/42 7/7/7
f 7/7/7 42/36/42 43/37/43
f 7/7/7 43/37/43 8/8/8
f 8/8/8 43/37/43 44/38/44
f 8/8/8 44/38/44 9/9/9
f 9/9/9 44/38/44 10/10/10
f 10/10/10 44/38/44 11/11/11
f 11/11/11 44/38/44 12/12/12
f 12/12/12 44/38/44 43/37/43
f 12/12/12 43/37/43 13/13/13
f 13/13/13 43/37/43 42/36/42
f 13/13/13 42/36/42 14/14/14
f 14/14/14 42/36/42 15/15/15
f 15/15/15 42/36/42 41/35/41
f 15/15/15 41/35/41 16/16/16
f 16/16/16 41/35/41 40/34/40
f 16/16/16 40/34/40 17/17/17
f 17/17/17 40/34/40 18/18/18
f 18/18/18 40/34/40 39/33/39
f 18/18/18 39/33/39 19/19/19
f 19/19/19 39/33/39 1/1/1
f 4/4/45 3/3/45 20/20/45
f 4/4/45 20/20/45 21/21/45
f 6/6/45 5/5/45 22/22/45
f 6/6/45 22/22/45 23/23/45
f 6/6/45 23/23/45 24/24/45
f 6/6/45 24/24/45 7/7/45
f 10/10/45 9/9/45 25/25/45
f 10/10/45 25/25/45 26/26/45
f 10/10/45 26/26/45 27/27/45
f 10/10/45 27/27/45 11/11/45
f 14/14/45 30/30/45 15/15/45
f 14/14/45 29/29/45 30/30/45
f 14/14/45 28/28/45 29/29/45
f 14/14/45 13/13/45 28/28/45
f 16/16/45 32/32/45 17/17/45
f 16/16/45 31/31/45 32/32/45
f 4/4/46 20/20/46 3/3/46
f 4/4/46 21/21/46 20/20/46
f 6/6/46 22/22/46 5/5/46
f 6/6/46 23/23/46 22/22/46
f 6/6/46 24/24/46 23/23/46
f 6/6/46 7/7/46 24/24/46
f 10/10/46 25/25/46 9/9/46
f 10/10/46 26/26/46 25/25/46
f 10/10/46 27/27/46 26/26/46
f 10/10/46 11/11/46 27/27/46
f 14/14/46 15/15/46 30/30/46
f 14/14/46 30/30/46 29/29/46
f 14/14/46 29/29/46 28/28/46
f 14/14/46 28/28/46 13/13/46
f 16/16/46 17/17/46 32/32/46
f 16/16/46 32/32/46 31/31/46




# End of rainbow_trout.obj

