#
# sturgeon.obj
#
# 44 vertexes
# 38 texture coordinate pairs
# 46 vertex normals
# 1 meshes
#  90 faces
#



# 1 material libraries
mtllib fish.mtl



# 44 vertexes
v 1.48915 -0.105008 0
v 1.3194 -0.0617261 0
v 0.673078 0.333585 0
v -0.462889 0.322043 0
v -0.573874 0.298959 0
v -0.704445 0.287417 0
v -0.848073 0.255677 0
v -0.952529 0.218166 0
v -1.05046 0.235479 0
v -1.11574 0.174884 0
v -1.10269 0.105632 0
v -0.81543 0.0652352 0
v -0.495531 -0.0905809 0
v -0.443303 -0.105008 0
v -0.391075 -0.148291 0
v 0.535979 -0.292565 0
v 0.71225 -0.243512 0
v 1.04521 -0.240626 0
v 1.40428 -0.185802 0
v 0.35318 0.417264 0
v 0.033281 0.440348 0
v -0.658745 0.388409 0
v -0.81543 0.558653 0
v -0.789316 0.350898 0
v -1.38994 0.500943 0
v -1.18756 0.192196 0
v -1.30507 -0.0501842 0
v -0.567345 -0.122321 0
v -0.573874 -0.301221 0
v -0.475946 -0.194458 0
v 0.653493 -0.65325 0
v 0.718778 -0.459923 0
v 1.01256 -0.0819245 0.17968
v 0.705721 0.0277239 0.154011
v -0.09729 0.122945 0.205348
v -0.495531 0.148914 0.128343
v -0.795844 0.137372 0.0770056
v -1.00476 0.169113 0.0513371
v 1.01256 -0.0819245 -0.17968
v 0.705721 0.0277239 -0.154011
v -0.09729 0.122945 -0.205348
v -0.495531 0.148914 -0.128343
v -0.795844 0.137372 -0.0770056
v -1.00476 0.169113 -0.0513371



# 38 texture coordinate pairs
vt 0.989497 0.459722
vt 0.933073 0.492274
vt 0.718229 0.789583
vt 0.340625 0.780903
vt 0.303733 0.763542
vt 0.26033 0.754861
vt 0.212587 0.73099
vt 0.177865 0.702778
vt 0.145313 0.715799
vt 0.123611 0.670226
vt 0.127951 0.618142
vt 0.223438 0.58776
vt 0.329774 0.470573
vt 0.347135 0.459722
vt 0.364497 0.42717
vt 0.672656 0.318663
vt 0.73125 0.355556
vt 0.841927 0.357726
vt 0.961285 0.398958
vt 0.611892 0.852517
vt 0.505556 0.869878
vt 0.275521 0.830816
vt 0.223438 0.958854
vt 0.232118 0.802604
vt 0.0324653 0.915451
vt 0.0997396 0.683247
vt 0.0606771 0.500955
vt 0.305903 0.446701
vt 0.303733 0.312153
vt 0.336285 0.392448
vt 0.711719 0.0473958
vt 0.73342 0.192795
vt 0.831076 0.477083
vt 0.72908 0.559549
vt 0.462153 0.631163
vt 0.329774 0.650694
vt 0.229948 0.642014
vt 0.160503 0.665885



# 46 vertex normals
vn 0.717023 0.697049 0
vn 0.330573 0.94378 2.45976e-017
vn 0.289844 0.957074 -1.17433e-016
vn 0.00257346 0.999997 -5.96208e-017
vn -0.156376 0.987698 -8.95294e-017
vn -0.149359 0.988783 0
vn -0.289333 0.957229 3.46324e-017
vn -0.0190914 0.999818 2.99918e-017
vn -0.232879 0.972506 -5.12544e-017
vn -0.928002 0.372576 0
vn -0.620455 -0.784242 -6.89541e-017
vn -0.295173 -0.955444 -1.40001e-016
vn -0.341995 -0.939702 6.57286e-017
vn -0.485423 -0.874279 5.12935e-017
vn -0.419833 -0.907601 1.03102e-016
vn 0.0388862 -0.999244 -3.78781e-017
vn 0.141095 -0.989996 -5.60525e-017
vn -0.0999073 -0.994997 2.80737e-017
vn 0.373527 -0.927619 -4.81741e-017
vn 1 0 0
vn 1 0 0
vn 1 0 0
vn 1 0 0
vn 1 0 0
vn 1 0 0
vn 1 0 0
vn 1 0 0
vn 1 0 0
vn 1 0 0
vn 1 0 0
vn 1 0 0
vn 1 0 0
vn 0.18273 -0.0418348 0.982273
vn 0.0802721 0.0637275 0.994734
vn -0.0788902 0.125135 0.988998
vn -0.193688 0.0641564 0.978963
vn -0.200033 -0.027394 0.979406
vn -0.190685 0.0915192 0.977376
vn 0.18273 -0.0418348 -0.982273
vn 0.0802721 0.0637275 -0.994734
vn -0.0788902 0.125135 -0.988998
vn -0.193688 0.0641564 -0.978963
vn -0.200033 -0.027394 -0.979406
vn -0.190685 0.0915192 -0.977376
vn 0 0 1
vn 0 0 -1



# 1 meshes

usemtl sturgeon
# 90 faces
f 1/1/1 2/2/2 33/33/33
f 2/2/2 34/34/34 33/33/33
f 2/2/2 3/3/3 34/34/34
f 3/3/3 4/4/4 34/34/34
f 4/4/4 35/35/35 34/34/34
f 4/4/4 5/5/5 35/35/35
f 5/5/5 36/36/36 35/35/35
f 5/5/5 6/6/6 36/36/36
f 6/6/6 7/7/7 36/36/36
f 7/7/7 37/37/37 36/36/36
f 7/7/7 8/8/8 37/37/37
f 8/8/8 38/38/38 37/37/37
f 8/8/8 9/9/9 38/38/38
f 9/9/9 10/10/10 38/38/38
f 10/10/10 11/11/11 38/38/38
f 11/11/11 12/12/12 38/38/38
f 12/12/12 37/37/37 38/38/38
f 12/12/12 13/13/13 37/37/37
f 13/13/13 36/36/36 37/37/37
f 13/13/13 14/14/14 36/36/36
f 14/14/14 15/15/15 36/36/36
f 15/15/15 35/35/35 36/36/36
f 15/15/15 16/16/16 35/35/35
f 16/16/16 34/34/34 35/35/35
f 16/16/16 17/17/17 34/34/34
f 17/17/17 18/18/18 34/34/34
f 18/18/18 33/33/33 34/34/34
f 18/18/18 19/19/19 33/33/33
f 19/19/19 1/1/1 33/33/33
f 1/1/1 39/33/39 2/2/2
f 2/2/2 39/33/39 40/34/40
f 2/2/2 40/34/40 3/3/3
f 3/3/3 40/34/40 4/4/4
f 4/4/4 40/34/40 41/35/41
f 4/4/4 41/35/41 5/5/5
f 5/5/5 41/35/41 42/36/42
f 5/5/5 42/36/42 6/6/6
f 6/6/6 42/36/42 7/7/7
f 7/7/7 42/36/42 43/37/43
f 7/7/7 43/37/43 8/8/8
f 8/8/8 43/37/43 44/38/44
f 8/8/8 44/38/44 9/9/9
f 9/9/9 44/38/44 10/10/10
f 10/10/10 44/38/44 11/11/11
f 11/11/11 44/38/44 12/12/12
f 12/12/12 44/38/44 43/37/43
f 12/12/12 43/37/43 13/13/13
f 13/13/13 43/37/43 42/36/42
f 13/13/13 42/36/42 14/14/14
f 14/14/14 42/36/42 15/15/15
f 15/15/15 42/36/42 41/35/41
f 15/15/15 41/35/41 16/16/16
f 16/16/16 41/35/41 40/34/40
f 16/16/16 40/34/40 17/17/17
f 17/17/17 40/34/40 18/18/18
f 18/18/18 40/34/40 39/33/39
f 18/18/18 39/33/39 19/19/19
f 19/19/19 39/33/39 1/1/1
f 4/4/45 3/3/45 20/20/45
f 4/4/45 20/20/45 21/21/45
f 6/6/45 5/5/45 22/22/45
f 6/6/45 22/22/45 23/23/45
f 6/6/45 23/23/45 24/24/45
f 6/6/45 24/24/45 7/7/45
f 10/10/45 9/9/45 25/25/45
f 10/10/45 25/25/45 26/26/45
f 10/10/45 26/26/45 27/27/45
f 10/10/45 27/27/45 11/11/45
f 14/14/45 30/30/45 15/15/45
f 14/14/45 29/29/45 30/30/45
f 14/14/45 28/28/45 29/29/45
f 14/14/45 13/13/45 28/28/45
f 16/16/45 32/32/45 17/17/45
f 16/16/45 31/31/45 32/32/45
f 4/4/46 20/20/46 3/3/46
f 4/4/46 21/21/46 20/20/46
f 6/6/46 22/22/46 5/5/46
f 6/6/46 23/23/46 22/22/46
f 6/6/46 24/24/46 23/23/46
f 6/6/46 7/7/46 24/24/46
f 10/10/46 25/25/46 9/9/46
f 10/10/46 26/26/46 25/25/46
f 10/10/46 27/27/46 26/26/46
f 10/10/46 11/11/46 27/27/46
f 14/14/46 15/15/46 30/30/46
f 14/14/46 30/30/46 29/29/46
f 14/14/46 29/29/46 28/28/46
f 14/14/46 28/28/46 13/13/46
f 16/16/46 17/17/46 32/32/46
f 16/16/46 32/32/46 31/31/46




# End of sturgeon.obj

