#
#  tunnel.obj
#
#  16 vertexes
#  18 texture coordinate pairs
#  8 vertex normals
#  1 meshes
#     16 faces
#  All faces are triangulated
#

# 1 material libraries
mtllib tunnel.mtl



# 16 vertexes
v -1 1 0
v 1 1 0
v -1 0.707107 0.707107
v 1 0.707107 0.707107
v -1 0 1
v 1 0 1
v -1 -0.707107 0.707107
v 1 -0.707107 0.707107
v -1 -1 0
v 1 -1 0
v -1 -0.707107 -0.707107
v 1 -0.707107 -0.707107
v -1 -0 -1
v 1 -0 -1
v -1 0.707107 -0.707107
v 1 0.707107 -0.707107

# 18 texture coordinate pairs
vt 0 0
vt 1 0
vt 0 0.125
vt 1 0.125
vt 0 0.25
vt 1 0.25
vt 0 0.375
vt 1 0.375
vt 0 0.5
vt 1 0.5
vt 0 0.625
vt 1 0.625
vt 0 0.75
vt 1 0.75
vt 0 0.875
vt 1 0.875
vt 0 1
vt 1 1

# 8 vertex normals
vn 0 1 0
vn 0 0.707107 0.707107
vn 0 0 1
vn 0 -0.707107 0.707107
vn 0 -1 0
vn 0 -0.707107 -0.707107
vn 0 -0 -1
vn 0 0.707107 -0.707107



# 1 meshes

usemtl tunnel
# 16 faces
f 2/2/1 1/1/1 4/4/2
f 4/4/2 1/1/1 3/3/2
f 4/4/2 3/3/2 6/6/3
f 6/6/3 3/3/2 5/5/3
f 6/6/3 5/5/3 8/8/4
f 8/8/4 5/5/3 7/7/4
f 8/8/4 7/7/4 10/10/5
f 10/10/5 7/7/4 9/9/5
f 10/10/5 9/9/5 12/12/6
f 12/12/6 9/9/5 11/11/6
f 12/12/6 11/11/6 14/14/7
f 14/14/7 11/11/6 13/13/7
f 14/14/7 13/13/7 16/16/8
f 16/16/8 13/13/7 15/15/8
f 16/16/8 15/15/8 2/18/1
f 2/18/1 15/15/8 1/17/1




# End of tunnel.obj

