#
#  rock-lowpoly.obj
#
#  40 vertexes
#  45 texture coordinate pairs
#  40 vertex normals
#  1 meshes
#     64 faces
#  All faces are triangulated
#

# 1 material libraries
mtllib rock.mtl



# 40 vertexes
v 0 1 -0
v 0.707107 0.707107 -0
v 1 0 -0
v 0.707107 -0.707107 -0
v 0 -1 -0
v 0 1 -0
v 0.5 0.707107 -0.5
v 0.707107 0 -0.707107
v 0.5 -0.707107 -0.5
v 0 -1 -0
v 0 1 -0
v 0 0.707107 -0.707107
v 0 0 -1
v 0 -0.707107 -0.707107
v 0 -1 -0
v -0 1 -0
v -0.5 0.707107 -0.5
v -0.707107 0 -0.707107
v -0.5 -0.707107 -0.5
v -0 -1 -0
v -0 1 -0
v -0.707107 0.707107 -0
v -1 0 -0
v -0.707107 -0.707107 -0
v -0 -1 -0
v -0 1 0
v -0.5 0.707107 0.5
v -0.707107 0 0.707107
v -0.5 -0.707107 0.5
v -0 -1 0
v -0 1 0
v -0 0.707107 0.707107
v -0 0 1
v -0 -0.707107 0.707107
v -0 -1 0
v 0 1 0
v 0.5 0.707107 0.5
v 0.707107 0 0.707107
v 0.5 -0.707107 0.5
v 0 -1 0

# 45 texture coordinate pairs
vt 0 1
vt 0 0.75
vt 0 0.5
vt 0 0.25
vt 0 0
vt 0.125 1
vt 0.125 0.75
vt 0.125 0.5
vt 0.125 0.25
vt 0.125 0
vt 0.25 1
vt 0.25 0.75
vt 0.25 0.5
vt 0.25 0.25
vt 0.25 0
vt 0.375 1
vt 0.375 0.75
vt 0.375 0.5
vt 0.375 0.25
vt 0.375 0
vt 0.5 1
vt 0.5 0.75
vt 0.5 0.5
vt 0.5 0.25
vt 0.5 0
vt 0.625 1
vt 0.625 0.75
vt 0.625 0.5
vt 0.625 0.25
vt 0.625 0
vt 0.75 1
vt 0.75 0.75
vt 0.75 0.5
vt 0.75 0.25
vt 0.75 0
vt 0.875 1
vt 0.875 0.75
vt 0.875 0.5
vt 0.875 0.25
vt 0.875 0
vt 1 1
vt 1 0.75
vt 1 0.5
vt 1 0.25
vt 1 0

# 40 vertex normals
vn 0 1 -0
vn 0.707107 0.707107 -0
vn 1 0 -0
vn 0.707107 -0.707107 -0
vn 0 -1 -0
vn 0 1 -0
vn 0.5 0.707107 -0.5
vn 0.707107 0 -0.707107
vn 0.5 -0.707107 -0.5
vn 0 -1 -0
vn 0 1 -0
vn 0 0.707107 -0.707107
vn 0 0 -1
vn 0 -0.707107 -0.707107
vn 0 -1 -0
vn -0 1 -0
vn -0.5 0.707107 -0.5
vn -0.707107 0 -0.707107
vn -0.5 -0.707107 -0.5
vn -0 -1 -0
vn -0 1 -0
vn -0.707107 0.707107 -0
vn -1 0 -0
vn -0.707107 -0.707107 -0
vn -0 -1 -0
vn -0 1 0
vn -0.5 0.707107 0.5
vn -0.707107 0 0.707107
vn -0.5 -0.707107 0.5
vn -0 -1 0
vn -0 1 0
vn -0 0.707107 0.707107
vn -0 0 1
vn -0 -0.707107 0.707107
vn -0 -1 0
vn 0 1 0
vn 0.5 0.707107 0.5
vn 0.707107 0 0.707107
vn 0.5 -0.707107 0.5
vn 0 -1 0



# 1 meshes

usemtl rock
# 64 faces
f 1/1/1 2/2/2 6/6/6
f 7/7/7 6/6/6 2/2/2
f 2/2/2 3/3/3 7/7/7
f 8/8/8 7/7/7 3/3/3
f 3/3/3 4/4/4 8/8/8
f 9/9/9 8/8/8 4/4/4
f 4/4/4 5/5/5 9/9/9
f 10/10/10 9/9/9 5/5/5
f 6/6/6 7/7/7 11/11/11
f 12/12/12 11/11/11 7/7/7
f 7/7/7 8/8/8 12/12/12
f 13/13/13 12/12/12 8/8/8
f 8/8/8 9/9/9 13/13/13
f 14/14/14 13/13/13 9/9/9
f 9/9/9 10/10/10 14/14/14
f 15/15/15 14/14/14 10/10/10
f 11/11/11 12/12/12 16/16/16
f 17/17/17 16/16/16 12/12/12
f 12/12/12 13/13/13 17/17/17
f 18/18/18 17/17/17 13/13/13
f 13/13/13 14/14/14 18/18/18
f 19/19/19 18/18/18 14/14/14
f 14/14/14 15/15/15 19/19/19
f 20/20/20 19/19/19 15/15/15
f 16/16/16 17/17/17 21/21/21
f 22/22/22 21/21/21 17/17/17
f 17/17/17 18/18/18 22/22/22
f 23/23/23 22/22/22 18/18/18
f 18/18/18 19/19/19 23/23/23
f 24/24/24 23/23/23 19/19/19
f 19/19/19 20/20/20 24/24/24
f 25/25/25 24/24/24 20/20/20
f 21/21/21 22/22/22 26/26/26
f 27/27/27 26/26/26 22/22/22
f 22/22/22 23/23/23 27/27/27
f 28/28/28 27/27/27 23/23/23
f 23/23/23 24/24/24 28/28/28
f 29/29/29 28/28/28 24/24/24
f 24/24/24 25/25/25 29/29/29
f 30/30/30 29/29/29 25/25/25
f 26/26/26 27/27/27 31/31/31
f 32/32/32 31/31/31 27/27/27
f 27/27/27 28/28/28 32/32/32
f 33/33/33 32/32/32 28/28/28
f 28/28/28 29/29/29 33/33/33
f 34/34/34 33/33/33 29/29/29
f 29/29/29 30/30/30 34/34/34
f 35/35/35 34/34/34 30/30/30
f 31/31/31 32/32/32 36/36/36
f 37/37/37 36/36/36 32/32/32
f 32/32/32 33/33/33 37/37/37
f 38/38/38 37/37/37 33/33/33
f 33/33/33 34/34/34 38/38/38
f 39/39/39 38/38/38 34/34/34
f 34/34/34 35/35/35 39/39/39
f 40/40/40 39/39/39 35/35/35
f 36/36/36 37/37/37 1/41/1
f 2/42/2 1/41/1 37/37/37
f 37/37/37 38/38/38 2/42/2
f 3/43/3 2/42/2 38/38/38
f 38/38/38 39/39/39 3/43/3
f 4/44/4 3/43/3 39/39/39
f 39/39/39 40/40/40 4/44/4
f 5/45/5 4/44/4 40/40/40




# End of rock-lowpoly.obj

