#
# salmon.obj
#
# 44 vertexes
# 38 texture coordinate pairs
# 46 vertex normals
# 1 meshes
#  90 faces
#



# 1 material libraries
mtllib fish.mtl



# 44 vertexes
v 1.58234 -0.105955 0
v 1.00014 0.166855 0
v 0.470082 0.266535 0
v 0.0964339 0.261289 0
v -0.685621 0.172101 0
v -0.763826 0.158985 0
v -0.815963 0.138 0
v -0.998442 0.08029 0
v -1.18092 0.0540584 0
v -1.34602 -0.0744768 0
v -1.21568 -0.221374 0
v -1.07122 -0.18912 0
v -0.807273 -0.268591 0
v -0.633484 -0.328924 0
v -0.477073 -0.389257 0
v 0.0616759 -0.515169 0
v 0.261534 -0.507299 0
v 0.895867 -0.462705 0
v 1.59972 -0.221374 0
v 0.200708 0.541967 0
v -0.025219 0.290143 0
v -0.807273 0.214072 0
v -0.885479 0.193086 0
v -0.85941 0.158985 0
v -1.65884 0.350476 0
v -1.57195 -0.0849695 0
v -1.67622 -0.478444 0
v -0.920237 -0.294823 0
v -0.842031 -0.415488 0
v -0.798584 -0.525661 0
v -0.00784001 -0.638458 0
v 0.0529864 -0.625342 0
v 1.34772 -0.174157 0.17968
v 0.887178 -0.12694 0.154011
v 0.370533 -0.0677777 0.205348
v -0.346928 -0.100447 0.128343
v -0.825236 -0.105114 0.0770056
v -1.12878 -0.0718536 0.0513371
v 1.34772 -0.174157 -0.17968
v 0.887178 -0.12694 -0.154011
v 0.370533 -0.0677777 -0.205348
v -0.346928 -0.100447 -0.128343
v -0.825236 -0.105114 -0.0770056
v -1.12878 -0.0718536 -0.0513371



# 38 texture coordinate pairs
vt 0.88967 0.451042
vt 0.744271 0.676736
vt 0.611892 0.759201
vt 0.518576 0.754861
vt 0.323264 0.681076
vt 0.303733 0.670226
vt 0.290712 0.652865
vt 0.245139 0.605122
vt 0.199566 0.58342
vt 0.158333 0.477083
vt 0.190885 0.355556
vt 0.226962 0.382239
vt 0.292882 0.316493
vt 0.336285 0.26658
vt 0.375347 0.216667
vt 0.509896 0.1125
vt 0.559809 0.11901
vt 0.718229 0.155903
vt 0.89401 0.355556
vt 0.544618 0.987066
vt 0.488194 0.778733
vt 0.292882 0.715799
vt 0.273351 0.698438
vt 0.279861 0.670226
vt 0.0802083 0.828646
vt 0.10191 0.468403
vt 0.0758681 0.142882
vt 0.26467 0.294792
vt 0.284201 0.194965
vt 0.295052 0.103819
vt 0.492535 0.0105035
vt 0.507726 0.0213542
vt 0.831076 0.394618
vt 0.716059 0.433681
vt 0.587031 0.482625
vt 0.40785 0.455598
vt 0.288396 0.451737
vt 0.212587 0.479253



# 46 vertex normals
vn 0.764724 0.644359 -4.69079e-017
vn 0.243855 0.969812 3.41526e-017
vn 0.0964218 0.995341 1.38558e-016
vn 0.0585083 0.998287 0
vn -0.196664 0.980471 -4.6959e-017
vn -0.261771 0.96513 0
vn -0.333146 0.942875 0
vn -0.182796 0.983151 -5.38679e-017
vn -0.391928 0.919996 0
vn -0.980657 0.195733 0
vn -0.243415 -0.969922 0
vn -0.137303 -0.990529 8.80918e-017
vn -0.272791 -0.962073 0
vn -0.343831 -0.939031 1.46352e-016
vn -0.267745 -0.96349 0
vn -0.0257788 -0.999668 0
vn 0.0551124 -0.99848 0
vn 0.124348 -0.992239 0
vn 0.780266 -0.625448 0
vn 1 0 0
vn 1 0 0
vn 1 0 0
vn 1 0 0
vn 1 0 0
vn 1 0 0
vn 1 0 0
vn 1 0 0
vn 1 0 0
vn 1 0 0
vn 1 0 0
vn 1 0 0
vn 1 0 0
vn 0.26993 0.0091743 0.962836
vn 0.029945 0.0283305 0.99915
vn -0.0286676 0.0424248 0.998688
vn -0.110817 -0.0352281 0.993216
vn -0.106041 -0.0643212 0.992279
vn -0.103878 -0.00281465 0.994586
vn 0.26993 0.0091743 -0.962836
vn 0.029945 0.0283305 -0.99915
vn -0.0286676 0.0424248 -0.998688
vn -0.110817 -0.0352281 -0.993216
vn -0.106041 -0.0643212 -0.992279
vn -0.103878 -0.00281465 -0.994586
vn 0 0 1
vn 0 0 -1



# 1 meshes

usemtl salmon
# 90 faces
f 1/1/1 2/2/2 33/33/33
f 2/2/2 34/34/34 33/33/33
f 2/2/2 3/3/3 34/34/34
f 3/3/3 4/4/4 34/34/34
f 4/4/4 35/35/35 34/34/34
f 4/4/4 5/5/5 35/35/35
f 5/5/5 36/36/36 35/35/35
f 5/5/5 6/6/6 36/36/36
f 6/6/6 7/7/7 36/36/36
f 7/7/7 37/37/37 36/36/36
f 7/7/7 8/8/8 37/37/37
f 8/8/8 38/38/38 37/37/37
f 8/8/8 9/9/9 38/38/38
f 9/9/9 10/10/10 38/38/38
f 10/10/10 11/11/11 38/38/38
f 11/11/11 12/12/12 38/38/38
f 12/12/12 37/37/37 38/38/38
f 12/12/12 13/13/13 37/37/37
f 13/13/13 36/36/36 37/37/37
f 13/13/13 14/14/14 36/36/36
f 14/14/14 15/15/15 36/36/36
f 15/15/15 35/35/35 36/36/36
f 15/15/15 16/16/16 35/35/35
f 16/16/16 34/34/34 35/35/35
f 16/16/16 17/17/17 34/34/34
f 17/17/17 18/18/18 34/34/34
f 18/18/18 33/33/33 34/34/34
f 18/18/18 19/19/19 33/33/33
f 19/19/19 1/1/1 33/33/33
f 1/1/1 39/33/39 2/2/2
f 2/2/2 39/33/39 40/34/40
f 2/2/2 40/34/40 3/3/3
f 3/3/3 40/34/40 4/4/4
f 4/4/4 40/34/40 41/35/41
f 4/4/4 41/35/41 5/5/5
f 5/5/5 41/35/41 42/36/42
f 5/5/5 42/36/42 6/6/6
f 6/6/6 42/36/42 7/7/7
f 7/7/7 42/36/42 43/37/43
f 7/7/7 43/37/43 8/8/8
f 8/8/8 43/37/43 44/38/44
f 8/8/8 44/38/44 9/9/9
f 9/9/9 44/38/44 10/10/10
f 10/10/10 44/38/44 11/11/11
f 11/11/11 44/38/44 12/12/12
f 12/12/12 44/38/44 43/37/43
f 12/12/12 43/37/43 13/13/13
f 13/13/13 43/37/43 42/36/42
f 13/13/13 42/36/42 14/14/14
f 14/14/14 42/36/42 15/15/15
f 15/15/15 42/36/42 41/35/41
f 15/15/15 41/35/41 16/16/16
f 16/16/16 41/35/41 40/34/40
f 16/16/16 40/34/40 17/17/17
f 17/17/17 40/34/40 18/18/18
f 18/18/18 40/34/40 39/33/39
f 18/18/18 39/33/39 19/19/19
f 19/19/19 39/33/39 1/1/1
f 4/4/45 3/3/45 20/20/45
f 4/4/45 20/20/45 21/21/45
f 6/6/45 5/5/45 22/22/45
f 6/6/45 22/22/45 23/23/45
f 6/6/45 23/23/45 24/24/45
f 6/6/45 24/24/45 7/7/45
f 10/10/45 9/9/45 25/25/45
f 10/10/45 25/25/45 26/26/45
f 10/10/45 26/26/45 27/27/45
f 10/10/45 27/27/45 11/11/45
f 14/14/45 30/30/45 15/15/45
f 14/14/45 29/29/45 30/30/45
f 14/14/45 28/28/45 29/29/45
f 14/14/45 13/13/45 28/28/45
f 16/16/45 32/32/45 17/17/45
f 16/16/45 31/31/45 32/32/45
f 4/4/46 20/20/46 3/3/46
f 4/4/46 21/21/46 20/20/46
f 6/6/46 22/22/46 5/5/46
f 6/6/46 23/23/46 22/22/46
f 6/6/46 24/24/46 23/23/46
f 6/6/46 7/7/46 24/24/46
f 10/10/46 25/25/46 9/9/46
f 10/10/46 26/26/46 25/25/46
f 10/10/46 27/27/46 26/26/46
f 10/10/46 11/11/46 27/27/46
f 14/14/46 15/15/46 30/30/46
f 14/14/46 30/30/46 29/29/46
f 14/14/46 29/29/46 28/28/46
f 14/14/46 28/28/46 13/13/46
f 16/16/46 17/17/46 32/32/46
f 16/16/46 32/32/46 31/31/46




# End of salmon.obj

